<svg width="297" height="65" viewBox="0 0 297 65" fill="none" xmlns="http://www.w3.org/2000/svg">
<path fill-rule="evenodd" clip-rule="evenodd" d="M51.2048 20.6025C51.2048 10.3354 42.8694 2 32.6025 2C22.3354 2 14 10.3354 14 20.6025V44.1081C14 54.3752 22.3354 62.7106 32.6025 62.7106C42.8694 62.7106 51.2048 54.3752 51.2048 44.1081V20.6025Z" stroke="#DCDCDC" stroke-width="3" stroke-miterlimit="1.5" stroke-linecap="round" stroke-linejoin="round"/>
<path d="M33 20V31.9537" stroke="#DCDCDC" stroke-width="4" stroke-miterlimit="1.5" stroke-linecap="round" stroke-linejoin="round"/>
<path d="M91.9432 28.0469C91.8371 27.0545 91.3902 26.2817 90.6023 25.7287C89.822 25.1757 88.8068 24.8991 87.5568 24.8991C86.678 24.8991 85.9242 25.0317 85.2955 25.2969C84.6667 25.562 84.1856 25.9219 83.8523 26.3764C83.5189 26.831 83.3485 27.3499 83.3409 27.9332C83.3409 28.4181 83.4508 28.8385 83.6705 29.1946C83.8977 29.5507 84.2045 29.8537 84.5909 30.1037C84.9773 30.3461 85.4053 30.5507 85.875 30.7173C86.3447 30.884 86.8182 31.0241 87.2955 31.1378L89.4773 31.6832C90.3561 31.8878 91.2008 32.1643 92.0114 32.5128C92.8295 32.8613 93.5606 33.3007 94.2045 33.831C94.8561 34.3613 95.3712 35.0014 95.75 35.7514C96.1288 36.5014 96.3182 37.3802 96.3182 38.3878C96.3182 39.7514 95.9697 40.9522 95.2727 41.9901C94.5758 43.0204 93.5682 43.8272 92.25 44.4105C90.9394 44.9863 89.3523 45.2741 87.4886 45.2741C85.678 45.2741 84.1061 44.9938 82.7727 44.4332C81.447 43.8726 80.4091 43.0545 79.6591 41.9787C78.9167 40.9029 78.5152 39.5923 78.4545 38.0469H82.6023C82.6629 38.8575 82.9129 39.5317 83.3523 40.0696C83.7917 40.6075 84.3636 41.009 85.0682 41.2741C85.7803 41.5393 86.5758 41.6719 87.4545 41.6719C88.3712 41.6719 89.1742 41.5355 89.8636 41.2628C90.5606 40.9825 91.1061 40.5961 91.5 40.1037C91.8939 39.6037 92.0947 39.0204 92.1023 38.3537C92.0947 37.7476 91.9167 37.2476 91.5682 36.8537C91.2197 36.4522 90.7311 36.1188 90.1023 35.8537C89.4811 35.581 88.7538 35.3385 87.9205 35.1264L85.2727 34.4446C83.3561 33.9522 81.8409 33.206 80.7273 32.206C79.6212 31.1984 79.0682 29.8613 79.0682 28.1946C79.0682 26.8234 79.4394 25.6226 80.1818 24.5923C80.9318 23.562 81.9508 22.7628 83.2386 22.1946C84.5265 21.6188 85.9848 21.331 87.6136 21.331C89.2652 21.331 90.7121 21.6188 91.9545 22.1946C93.2045 22.7628 94.1856 23.5545 94.8977 24.5696C95.6098 25.5772 95.9773 26.7363 96 28.0469H91.9432ZM107.509 45.2628C105.766 45.2628 104.27 44.8802 103.02 44.1151C101.777 43.3499 100.819 42.2931 100.145 40.9446C99.4782 39.5885 99.1449 38.0279 99.1449 36.2628C99.1449 34.4901 99.4858 32.9257 100.168 31.5696C100.849 30.206 101.812 29.1454 103.054 28.3878C104.304 27.6226 105.781 27.2401 107.486 27.2401C108.902 27.2401 110.156 27.5014 111.247 28.0241C112.346 28.5393 113.221 29.2704 113.872 30.2173C114.524 31.1567 114.895 32.2552 114.986 33.5128H111.054C110.895 32.6719 110.516 31.9711 109.918 31.4105C109.327 30.8423 108.535 30.5582 107.543 30.5582C106.702 30.5582 105.963 30.7855 105.327 31.2401C104.69 31.687 104.194 32.331 103.838 33.1719C103.49 34.0128 103.315 35.0204 103.315 36.1946C103.315 37.384 103.49 38.4067 103.838 39.2628C104.187 40.1113 104.675 40.7666 105.304 41.2287C105.94 41.6832 106.687 41.9105 107.543 41.9105C108.149 41.9105 108.69 41.7969 109.168 41.5696C109.652 41.3348 110.058 40.9976 110.384 40.5582C110.709 40.1188 110.933 39.5848 111.054 38.956H114.986C114.887 40.1908 114.524 41.2855 113.895 42.2401C113.266 43.187 112.41 43.9295 111.327 44.4673C110.243 44.9976 108.971 45.2628 107.509 45.2628ZM118.364 44.9219V27.4673H122.352V30.3764H122.534C122.852 29.3688 123.398 28.5923 124.17 28.0469C124.951 27.4938 125.841 27.2173 126.841 27.2173C127.068 27.2173 127.322 27.2287 127.602 27.2514C127.89 27.2666 128.129 27.2931 128.318 27.331V31.1151C128.144 31.0545 127.867 31.0014 127.489 30.956C127.117 30.9029 126.758 30.8764 126.409 30.8764C125.659 30.8764 124.985 31.0393 124.386 31.3651C123.795 31.6832 123.33 32.1264 122.989 32.6946C122.648 33.2628 122.477 33.9181 122.477 34.6605V44.9219H118.364ZM137.946 45.2628C136.241 45.2628 134.764 44.8878 133.514 44.1378C132.264 43.3878 131.295 42.3385 130.605 40.9901C129.923 39.6416 129.582 38.0658 129.582 36.2628C129.582 34.4598 129.923 32.8802 130.605 31.5241C131.295 30.1681 132.264 29.1151 133.514 28.3651C134.764 27.6151 136.241 27.2401 137.946 27.2401C139.651 27.2401 141.128 27.6151 142.378 28.3651C143.628 29.1151 144.594 30.1681 145.276 31.5241C145.965 32.8802 146.31 34.4598 146.31 36.2628C146.31 38.0658 145.965 39.6416 145.276 40.9901C144.594 42.3385 143.628 43.3878 142.378 44.1378C141.128 44.8878 139.651 45.2628 137.946 45.2628ZM137.969 41.9673C138.893 41.9673 139.666 41.7135 140.287 41.206C140.908 40.6908 141.37 40.0014 141.673 39.1378C141.984 38.2741 142.139 37.312 142.139 36.2514C142.139 35.1832 141.984 34.2173 141.673 33.3537C141.37 32.4825 140.908 31.7893 140.287 31.2741C139.666 30.759 138.893 30.5014 137.969 30.5014C137.022 30.5014 136.234 30.759 135.605 31.2741C134.984 31.7893 134.518 32.4825 134.207 33.3537C133.904 34.2173 133.753 35.1832 133.753 36.2514C133.753 37.312 133.904 38.2741 134.207 39.1378C134.518 40.0014 134.984 40.6908 135.605 41.206C136.234 41.7135 137.022 41.9673 137.969 41.9673ZM153.915 21.6491V44.9219H149.801V21.6491H153.915ZM162.259 21.6491V44.9219H158.145V21.6491H162.259ZM180.903 45.2287C179.532 45.2287 178.305 44.8764 177.222 44.1719C176.138 43.4673 175.282 42.4446 174.653 41.1037C174.025 39.7628 173.71 38.134 173.71 36.2173C173.71 34.2779 174.028 32.6416 174.665 31.3082C175.309 29.9673 176.176 28.956 177.267 28.2741C178.358 27.5848 179.574 27.2401 180.915 27.2401C181.938 27.2401 182.778 27.4143 183.438 27.7628C184.097 28.1037 184.619 28.5166 185.006 29.0014C185.392 29.4787 185.691 29.9295 185.903 30.3537H186.074V21.6491H190.199V44.9219H186.153V42.1719H185.903C185.691 42.5961 185.384 43.0469 184.983 43.5241C184.581 43.9938 184.051 44.3954 183.392 44.7287C182.733 45.062 181.903 45.2287 180.903 45.2287ZM182.051 41.8537C182.922 41.8537 183.665 41.6188 184.278 41.1491C184.892 40.6719 185.358 40.009 185.676 39.1605C185.994 38.312 186.153 37.3234 186.153 36.1946C186.153 35.0658 185.994 34.0848 185.676 33.2514C185.366 32.4181 184.903 31.7704 184.29 31.3082C183.684 30.8461 182.938 30.6151 182.051 30.6151C181.134 30.6151 180.369 30.8537 179.756 31.331C179.142 31.8082 178.68 32.4673 178.369 33.3082C178.059 34.1491 177.903 35.1113 177.903 36.1946C177.903 37.2855 178.059 38.259 178.369 39.1151C178.688 39.9635 179.153 40.634 179.767 41.1264C180.388 41.6113 181.15 41.8537 182.051 41.8537ZM202.196 45.2628C200.491 45.2628 199.014 44.8878 197.764 44.1378C196.514 43.3878 195.545 42.3385 194.855 40.9901C194.173 39.6416 193.832 38.0658 193.832 36.2628C193.832 34.4598 194.173 32.8802 194.855 31.5241C195.545 30.1681 196.514 29.1151 197.764 28.3651C199.014 27.6151 200.491 27.2401 202.196 27.2401C203.901 27.2401 205.378 27.6151 206.628 28.3651C207.878 29.1151 208.844 30.1681 209.526 31.5241C210.215 32.8802 210.56 34.4598 210.56 36.2628C210.56 38.0658 210.215 39.6416 209.526 40.9901C208.844 42.3385 207.878 43.3878 206.628 44.1378C205.378 44.8878 203.901 45.2628 202.196 45.2628ZM202.219 41.9673C203.143 41.9673 203.916 41.7135 204.537 41.206C205.158 40.6908 205.62 40.0014 205.923 39.1378C206.234 38.2741 206.389 37.312 206.389 36.2514C206.389 35.1832 206.234 34.2173 205.923 33.3537C205.62 32.4825 205.158 31.7893 204.537 31.2741C203.916 30.759 203.143 30.5014 202.219 30.5014C201.272 30.5014 200.484 30.759 199.855 31.2741C199.234 31.7893 198.768 32.4825 198.457 33.3537C198.154 34.2173 198.003 35.1832 198.003 36.2514C198.003 37.312 198.154 38.2741 198.457 39.1378C198.768 40.0014 199.234 40.6908 199.855 41.206C200.484 41.7135 201.272 41.9673 202.219 41.9673ZM217.153 44.9219L212.222 27.4673H216.415L219.483 39.7401H219.642L222.778 27.4673H226.926L230.062 39.6719H230.233L233.256 27.4673H237.46L232.517 44.9219H228.233L224.96 33.1264H224.722L221.449 44.9219H217.153ZM244.446 34.6946V44.9219H240.332V27.4673H244.264V30.4332H244.469C244.87 29.456 245.51 28.6795 246.389 28.1037C247.276 27.5279 248.37 27.2401 249.673 27.2401C250.878 27.2401 251.927 27.4976 252.821 28.0128C253.723 28.5279 254.42 29.2741 254.912 30.2514C255.412 31.2287 255.658 32.4143 255.651 33.8082V44.9219H251.537V34.4446C251.537 33.2779 251.234 32.3651 250.628 31.706C250.029 31.0469 249.2 30.7173 248.139 30.7173C247.42 30.7173 246.779 30.8764 246.219 31.1946C245.666 31.5052 245.23 31.956 244.912 32.5469C244.601 33.1378 244.446 33.8537 244.446 34.6946ZM282.622 21.6491V38.706L289.065 32.2401L291.429 34.581L280.929 45.0582L270.452 34.581L272.77 32.2401L279.236 38.706V21.6491H282.622Z" fill="#DCDCDC"/>
</svg>
