<svg width="122" height="42" viewBox="0 0 122 42" fill="none" xmlns="http://www.w3.org/2000/svg">
<path fill-rule="evenodd" clip-rule="evenodd" d="M20.9998 0C9.40346 0 0 9.63947 0 21.5317C0 31.0453 6.01709 39.1159 14.361 41.9633C15.4101 42.163 15.7954 41.4963 15.7954 40.9276C15.7954 40.4141 15.776 38.718 15.7669 36.9188C9.92474 38.2213 8.69197 34.3783 8.69197 34.3783C7.73671 31.8896 6.36032 31.2278 6.36032 31.2278C4.45466 29.8915 6.50394 29.9193 6.50394 29.9193C8.61234 30.0708 9.72304 32.1381 9.72304 32.1381C11.596 35.4291 14.6357 34.4778 15.834 33.928C16.0225 32.5364 16.5667 31.5862 17.1673 31.0485C12.5029 30.5047 7.59934 28.6581 7.59934 20.4078C7.59934 18.057 8.42003 16.1363 9.76338 14.628C9.545 14.0861 8.8262 11.8961 9.96647 8.93028C9.96647 8.93028 11.7296 8.35159 15.7426 11.1374C17.418 10.6599 19.2148 10.42 20.9998 10.4118C22.7838 10.42 24.5816 10.6592 26.2602 11.1366C30.2684 8.35088 32.0294 8.92957 32.0294 8.92957C33.1724 11.895 32.4536 14.0854 32.2356 14.6273C33.5821 16.1356 34.3968 18.0563 34.3968 20.4071C34.3968 28.677 29.4842 30.4976 24.808 31.031C25.5616 31.6992 26.2327 33.0099 26.2327 35.0184C26.2327 37.8993 26.2084 40.218 26.2084 40.9272C26.2084 41.5002 26.5868 42.1716 27.6509 41.9601C35.9899 39.1098 42 31.0417 42 21.5317C41.9997 9.64018 32.5972 0 20.9998 0Z" fill="white"/>
<path d="M118.902 0.000159048H83.0984C82.286 -0.00810828 81.5036 0.306221 80.9227 0.874176C80.3418 1.44213 80.01 2.21732 80 3.02964V38.9772C80.0118 39.7884 80.3444 40.5618 80.9251 41.1283C81.5058 41.6947 82.2872 42.0081 83.0984 41.9998H118.902C119.714 42.0063 120.496 41.6909 121.077 41.1226C121.657 40.5543 121.989 39.7793 122 38.9669V3.01932C121.986 2.20937 121.652 1.43788 121.072 0.872533C120.492 0.307185 119.712 -0.00632049 118.902 0.000159048ZM92.452 35.8032H86.2174V15.7432H92.452V35.8032ZM89.3536 13.0097C88.6385 13.0104 87.9393 12.799 87.3444 12.4022C86.7495 12.0054 86.2857 11.4411 86.0116 10.7807C85.7374 10.1202 85.6654 9.39334 85.8044 8.69192C85.9435 7.99051 86.2875 7.3461 86.7929 6.84023C87.2983 6.33435 87.9424 5.98974 88.6437 5.84999C89.345 5.71023 90.072 5.78162 90.7327 6.05511C91.3934 6.32859 91.9581 6.7919 92.3555 7.38641C92.7528 7.98093 92.9649 8.67993 92.9649 9.39501C92.964 9.87028 92.8694 10.3407 92.6865 10.7794C92.5035 11.218 92.2359 11.6163 91.8989 11.9514C91.5619 12.2865 91.162 12.5519 90.7223 12.7323C90.2826 12.9127 89.8117 13.0047 89.3364 13.0028L89.3536 13.0097ZM115.803 35.8032H109.569V26.0434C109.569 23.7197 109.527 20.728 106.329 20.728C103.131 20.728 102.587 23.2618 102.587 25.8919V35.8032H96.3628V15.7432H102.339V18.4972H102.422C103.255 16.9205 105.286 15.2577 108.319 15.2577C114.633 15.244 115.803 19.3992 115.803 24.7869V35.8032Z" fill="white"/>
</svg>
